<svg width="70" height="116" viewBox="0 0 70 116" fill="none" xmlns="http://www.w3.org/2000/svg">
<mask id="mask0_360_23" style="mask-type:alpha" maskUnits="userSpaceOnUse" x="5" y="22" width="60" height="72">
<path d="M64.7145 45H56.2599C55.7599 42.5682 54.8849 40.4318 53.6349 38.5909C52.4077 36.75 50.9077 35.2045 49.1349 33.9545C47.3849 32.6818 45.4418 31.7273 43.3054 31.0909C41.169 30.4545 38.9418 30.1364 36.6236 30.1364C32.3963 30.1364 28.5668 31.2045 25.1349 33.3409C21.7259 35.4773 19.0099 38.625 16.9872 42.7841C14.9872 46.9432 13.9872 52.0455 13.9872 58.0909C13.9872 64.1364 14.9872 69.2386 16.9872 73.3977C19.0099 77.5568 21.7259 80.7045 25.1349 82.8409C28.5668 84.9773 32.3963 86.0455 36.6236 86.0455C38.9418 86.0455 41.169 85.7273 43.3054 85.0909C45.4418 84.4545 47.3849 83.5114 49.1349 82.2614C50.9077 80.9886 52.4077 79.4318 53.6349 77.5909C54.8849 75.7273 55.7599 73.5909 56.2599 71.1818H64.7145C64.0781 74.75 62.919 77.9432 61.2372 80.7614C59.5554 83.5795 57.4645 85.9773 54.9645 87.9545C52.4645 89.9091 49.6577 91.3977 46.544 92.4205C43.4531 93.4432 40.1463 93.9545 36.6236 93.9545C30.669 93.9545 25.3736 92.5 20.7372 89.5909C16.1009 86.6818 12.4531 82.5455 9.79403 77.1818C7.13494 71.8182 5.8054 65.4545 5.8054 58.0909C5.8054 50.7273 7.13494 44.3636 9.79403 39C12.4531 33.6364 16.1009 29.5 20.7372 26.5909C25.3736 23.6818 30.669 22.2273 36.6236 22.2273C40.1463 22.2273 43.4531 22.7386 46.544 23.7614C49.6577 24.7841 52.4645 26.2841 54.9645 28.2614C57.4645 30.2159 59.5554 32.6023 61.2372 35.4205C62.919 38.2159 64.0781 41.4091 64.7145 45Z" fill="black"/>
</mask>
<g mask="url(#mask0_360_23)">
<rect x="-62" y="-21" width="199" height="167" fill="url(#paint0_linear_360_23)"/>
</g>
<defs>
<linearGradient id="paint0_linear_360_23" x1="37.5" y1="-21" x2="37.5" y2="146" gradientUnits="userSpaceOnUse">
<stop stop-color="#FF00E2"/>
<stop offset="1" stop-color="#22EFD6"/>
</linearGradient>
</defs>
</svg>
